<?xml version="1.0" encoding="UTF-8"?>
<!DOCTYPE svg PUBLIC "-//W3C//DTD SVG 1.0//EN" "http://www.w3.org/TR/2001/REC-SVG-20010904/DTD/svg10.dtd">
<svg xmlns="http://www.w3.org/2000/svg" xmlns:inkspace="http://www.inkscape.org/namespaces/inkscape" xmlns:xlink="http://www.w3.org/1999/xlink" viewBox="0 0 896 600">
  <defs>
    <filter height="1.504" id="filter_blur" inkspace:collect="always" width="1.1575" x="-0.07875" y="-0.252">
      <feGaussianBlur id="feGaussianBlur3780" inkspace:collect="always" stdDeviation="4.2"/>
    </filter>
  </defs>
  <title>blockdiag</title>
  <desc/>
  <path d="M 64 48 L 64 80" fill="none" stroke="rgb(0,0,0)"/>
  <text fill="rgb(0,0,0)" font-family="sansserif" font-size="11" font-style="normal" font-weight="normal" text-anchor="middle" x="64" y="42">0</text>
  <path d="M 88 64 L 88 80" fill="none" stroke="rgb(0,0,0)"/>
  <path d="M 112 64 L 112 80" fill="none" stroke="rgb(0,0,0)"/>
  <path d="M 136 64 L 136 80" fill="none" stroke="rgb(0,0,0)"/>
  <path d="M 160 64 L 160 80" fill="none" stroke="rgb(0,0,0)"/>
  <path d="M 184 64 L 184 80" fill="none" stroke="rgb(0,0,0)"/>
  <path d="M 208 64 L 208 80" fill="none" stroke="rgb(0,0,0)"/>
  <path d="M 232 64 L 232 80" fill="none" stroke="rgb(0,0,0)"/>
  <path d="M 256 48 L 256 80" fill="none" stroke="rgb(0,0,0)"/>
  <path d="M 280 64 L 280 80" fill="none" stroke="rgb(0,0,0)"/>
  <path d="M 304 64 L 304 80" fill="none" stroke="rgb(0,0,0)"/>
  <path d="M 328 64 L 328 80" fill="none" stroke="rgb(0,0,0)"/>
  <path d="M 352 64 L 352 80" fill="none" stroke="rgb(0,0,0)"/>
  <path d="M 376 64 L 376 80" fill="none" stroke="rgb(0,0,0)"/>
  <path d="M 400 64 L 400 80" fill="none" stroke="rgb(0,0,0)"/>
  <path d="M 424 64 L 424 80" fill="none" stroke="rgb(0,0,0)"/>
  <path d="M 448 48 L 448 80" fill="none" stroke="rgb(0,0,0)"/>
  <text fill="rgb(0,0,0)" font-family="sansserif" font-size="11" font-style="normal" font-weight="normal" text-anchor="middle" x="448" y="42">16</text>
  <path d="M 472 64 L 472 80" fill="none" stroke="rgb(0,0,0)"/>
  <path d="M 496 64 L 496 80" fill="none" stroke="rgb(0,0,0)"/>
  <path d="M 520 64 L 520 80" fill="none" stroke="rgb(0,0,0)"/>
  <path d="M 544 64 L 544 80" fill="none" stroke="rgb(0,0,0)"/>
  <path d="M 568 64 L 568 80" fill="none" stroke="rgb(0,0,0)"/>
  <path d="M 592 64 L 592 80" fill="none" stroke="rgb(0,0,0)"/>
  <path d="M 616 64 L 616 80" fill="none" stroke="rgb(0,0,0)"/>
  <path d="M 640 48 L 640 80" fill="none" stroke="rgb(0,0,0)"/>
  <path d="M 664 64 L 664 80" fill="none" stroke="rgb(0,0,0)"/>
  <path d="M 688 64 L 688 80" fill="none" stroke="rgb(0,0,0)"/>
  <path d="M 712 64 L 712 80" fill="none" stroke="rgb(0,0,0)"/>
  <path d="M 736 64 L 736 80" fill="none" stroke="rgb(0,0,0)"/>
  <path d="M 760 64 L 760 80" fill="none" stroke="rgb(0,0,0)"/>
  <path d="M 784 64 L 784 80" fill="none" stroke="rgb(0,0,0)"/>
  <path d="M 808 64 L 808 80" fill="none" stroke="rgb(0,0,0)"/>
  <path d="M 832 48 L 832 80" fill="none" stroke="rgb(0,0,0)"/>
  <text fill="rgb(0,0,0)" font-family="sansserif" font-size="11" font-style="normal" font-weight="normal" text-anchor="middle" x="832" y="42">32</text>
  <rect fill="rgb(255,255,255)" height="40" stroke="rgb(255,255,255)" width="768" x="64" y="80"/>
  <path d="M 64 80 L 832 80" fill="none" stroke="rgb(0,0,0)"/>
  <path d="M 832 80 L 832 120" fill="none" stroke="rgb(0,0,0)"/>
  <path d="M 832 120 L 64 120" fill="none" stroke="rgb(0,0,0)"/>
  <path d="M 64 120 L 64 80" fill="none" stroke="rgb(0,0,0)"/>
  <text fill="rgb(0,0,0)" font-family="sansserif" font-size="11" font-style="normal" font-weight="normal" text-anchor="middle" x="448" y="106">srcaddr</text>
  <rect fill="rgb(255,255,255)" height="40" stroke="rgb(255,255,255)" width="768" x="64" y="120"/>
  <path d="M 64 120 L 832 120" fill="none" stroke="rgb(0,0,0)"/>
  <path d="M 832 120 L 832 160" fill="none" stroke="rgb(0,0,0)"/>
  <path d="M 832 160 L 64 160" fill="none" stroke="rgb(0,0,0)"/>
  <path d="M 64 160 L 64 120" fill="none" stroke="rgb(0,0,0)"/>
  <text fill="rgb(0,0,0)" font-family="sansserif" font-size="11" font-style="normal" font-weight="normal" text-anchor="middle" x="448" y="146">dstaddr</text>
  <rect fill="rgb(255,255,255)" height="40" stroke="rgb(255,255,255)" width="768" x="64" y="160"/>
  <path d="M 64 160 L 832 160" fill="none" stroke="rgb(0,0,0)"/>
  <path d="M 832 160 L 832 200" fill="none" stroke="rgb(0,0,0)"/>
  <path d="M 832 200 L 64 200" fill="none" stroke="rgb(0,0,0)"/>
  <path d="M 64 200 L 64 160" fill="none" stroke="rgb(0,0,0)"/>
  <text fill="rgb(0,0,0)" font-family="sansserif" font-size="11" font-style="normal" font-weight="normal" text-anchor="middle" x="448" y="186">nexthop</text>
  <rect fill="rgb(255,255,255)" height="40" stroke="rgb(255,255,255)" width="384" x="64" y="200"/>
  <path d="M 64 200 L 448 200" fill="none" stroke="rgb(0,0,0)"/>
  <path d="M 448 200 L 448 240" fill="none" stroke="rgb(0,0,0)"/>
  <path d="M 448 240 L 64 240" fill="none" stroke="rgb(0,0,0)"/>
  <path d="M 64 240 L 64 200" fill="none" stroke="rgb(0,0,0)"/>
  <text fill="rgb(0,0,0)" font-family="sansserif" font-size="11" font-style="normal" font-weight="normal" text-anchor="middle" x="256" y="226">input if</text>
  <rect fill="rgb(255,255,255)" height="40" stroke="rgb(255,255,255)" width="384" x="448" y="200"/>
  <path d="M 448 200 L 832 200" fill="none" stroke="rgb(0,0,0)"/>
  <path d="M 832 200 L 832 240" fill="none" stroke="rgb(0,0,0)"/>
  <path d="M 832 240 L 448 240" fill="none" stroke="rgb(0,0,0)"/>
  <path d="M 448 240 L 448 200" fill="none" stroke="rgb(0,0,0)"/>
  <text fill="rgb(0,0,0)" font-family="sansserif" font-size="11" font-style="normal" font-weight="normal" text-anchor="middle" x="640" y="226">output if</text>
  <rect fill="rgb(255,255,255)" height="40" stroke="rgb(255,255,255)" width="768" x="64" y="240"/>
  <path d="M 64 240 L 832 240" fill="none" stroke="rgb(0,0,0)"/>
  <path d="M 832 240 L 832 280" fill="none" stroke="rgb(0,0,0)"/>
  <path d="M 832 280 L 64 280" fill="none" stroke="rgb(0,0,0)"/>
  <path d="M 64 280 L 64 240" fill="none" stroke="rgb(0,0,0)"/>
  <text fill="rgb(0,0,0)" font-family="sansserif" font-size="11" font-style="normal" font-weight="normal" text-anchor="middle" x="448" y="266">dPkts</text>
  <rect fill="rgb(255,255,255)" height="40" stroke="rgb(255,255,255)" width="768" x="64" y="280"/>
  <path d="M 64 280 L 832 280" fill="none" stroke="rgb(0,0,0)"/>
  <path d="M 832 280 L 832 320" fill="none" stroke="rgb(0,0,0)"/>
  <path d="M 832 320 L 64 320" fill="none" stroke="rgb(0,0,0)"/>
  <path d="M 64 320 L 64 280" fill="none" stroke="rgb(0,0,0)"/>
  <text fill="rgb(0,0,0)" font-family="sansserif" font-size="11" font-style="normal" font-weight="normal" text-anchor="middle" x="448" y="306">dOctets</text>
  <rect fill="rgb(255,255,255)" height="40" stroke="rgb(255,255,255)" width="768" x="64" y="320"/>
  <path d="M 64 320 L 832 320" fill="none" stroke="rgb(0,0,0)"/>
  <path d="M 832 320 L 832 360" fill="none" stroke="rgb(0,0,0)"/>
  <path d="M 832 360 L 64 360" fill="none" stroke="rgb(0,0,0)"/>
  <path d="M 64 360 L 64 320" fill="none" stroke="rgb(0,0,0)"/>
  <text fill="rgb(0,0,0)" font-family="sansserif" font-size="11" font-style="normal" font-weight="normal" text-anchor="middle" x="448" y="346">first_seen</text>
  <rect fill="rgb(255,255,255)" height="40" stroke="rgb(255,255,255)" width="768" x="64" y="360"/>
  <path d="M 64 360 L 832 360" fill="none" stroke="rgb(0,0,0)"/>
  <path d="M 832 360 L 832 400" fill="none" stroke="rgb(0,0,0)"/>
  <path d="M 832 400 L 64 400" fill="none" stroke="rgb(0,0,0)"/>
  <path d="M 64 400 L 64 360" fill="none" stroke="rgb(0,0,0)"/>
  <text fill="rgb(0,0,0)" font-family="sansserif" font-size="11" font-style="normal" font-weight="normal" text-anchor="middle" x="448" y="386">last_seen</text>
  <rect fill="rgb(255,255,255)" height="40" stroke="rgb(255,255,255)" width="384" x="64" y="400"/>
  <path d="M 64 400 L 448 400" fill="none" stroke="rgb(0,0,0)"/>
  <path d="M 448 400 L 448 440" fill="none" stroke="rgb(0,0,0)"/>
  <path d="M 448 440 L 64 440" fill="none" stroke="rgb(0,0,0)"/>
  <path d="M 64 440 L 64 400" fill="none" stroke="rgb(0,0,0)"/>
  <text fill="rgb(0,0,0)" font-family="sansserif" font-size="11" font-style="normal" font-weight="normal" text-anchor="middle" x="256" y="426">srcport</text>
  <rect fill="rgb(255,255,255)" height="40" stroke="rgb(255,255,255)" width="384" x="448" y="400"/>
  <path d="M 448 400 L 832 400" fill="none" stroke="rgb(0,0,0)"/>
  <path d="M 832 400 L 832 440" fill="none" stroke="rgb(0,0,0)"/>
  <path d="M 832 440 L 448 440" fill="none" stroke="rgb(0,0,0)"/>
  <path d="M 448 440 L 448 400" fill="none" stroke="rgb(0,0,0)"/>
  <text fill="rgb(0,0,0)" font-family="sansserif" font-size="11" font-style="normal" font-weight="normal" text-anchor="middle" x="640" y="426">dstport</text>
  <rect fill="rgb(255,255,255)" height="40" stroke="rgb(255,255,255)" width="192" x="64" y="440"/>
  <path d="M 64 440 L 256 440" fill="none" stroke="rgb(0,0,0)"/>
  <path d="M 256 440 L 256 480" fill="none" stroke="rgb(0,0,0)"/>
  <path d="M 256 480 L 64 480" fill="none" stroke="rgb(0,0,0)"/>
  <path d="M 64 480 L 64 440" fill="none" stroke="rgb(0,0,0)"/>
  <text fill="rgb(0,0,0)" font-family="sansserif" font-size="11" font-style="normal" font-weight="normal" text-anchor="middle" x="160" y="466">pad1</text>
  <rect fill="rgb(255,255,255)" height="40" stroke="rgb(255,255,255)" width="192" x="256" y="440"/>
  <path d="M 256 440 L 448 440" fill="none" stroke="rgb(0,0,0)"/>
  <path d="M 448 440 L 448 480" fill="none" stroke="rgb(0,0,0)"/>
  <path d="M 448 480 L 256 480" fill="none" stroke="rgb(0,0,0)"/>
  <path d="M 256 480 L 256 440" fill="none" stroke="rgb(0,0,0)"/>
  <text fill="rgb(0,0,0)" font-family="sansserif" font-size="11" font-style="normal" font-weight="normal" text-anchor="middle" x="352" y="466">tcp_flags</text>
  <rect fill="rgb(255,255,255)" height="40" stroke="rgb(255,255,255)" width="192" x="448" y="440"/>
  <path d="M 448 440 L 640 440" fill="none" stroke="rgb(0,0,0)"/>
  <path d="M 640 440 L 640 480" fill="none" stroke="rgb(0,0,0)"/>
  <path d="M 640 480 L 448 480" fill="none" stroke="rgb(0,0,0)"/>
  <path d="M 448 480 L 448 440" fill="none" stroke="rgb(0,0,0)"/>
  <text fill="rgb(0,0,0)" font-family="sansserif" font-size="11" font-style="normal" font-weight="normal" text-anchor="middle" x="544" y="466">protocol</text>
  <rect fill="rgb(255,255,255)" height="40" stroke="rgb(255,255,255)" width="192" x="640" y="440"/>
  <path d="M 640 440 L 832 440" fill="none" stroke="rgb(0,0,0)"/>
  <path d="M 832 440 L 832 480" fill="none" stroke="rgb(0,0,0)"/>
  <path d="M 832 480 L 640 480" fill="none" stroke="rgb(0,0,0)"/>
  <path d="M 640 480 L 640 440" fill="none" stroke="rgb(0,0,0)"/>
  <text fill="rgb(0,0,0)" font-family="sansserif" font-size="11" font-style="normal" font-weight="normal" text-anchor="middle" x="736" y="466">tos</text>
  <rect fill="rgb(255,255,255)" height="40" stroke="rgb(255,255,255)" width="384" x="64" y="480"/>
  <path d="M 64 480 L 448 480" fill="none" stroke="rgb(0,0,0)"/>
  <path d="M 448 480 L 448 520" fill="none" stroke="rgb(0,0,0)"/>
  <path d="M 448 520 L 64 520" fill="none" stroke="rgb(0,0,0)"/>
  <path d="M 64 520 L 64 480" fill="none" stroke="rgb(0,0,0)"/>
  <text fill="rgb(0,0,0)" font-family="sansserif" font-size="11" font-style="normal" font-weight="normal" text-anchor="middle" x="256" y="506">src_as</text>
  <rect fill="rgb(255,255,255)" height="40" stroke="rgb(255,255,255)" width="384" x="448" y="480"/>
  <path d="M 448 480 L 832 480" fill="none" stroke="rgb(0,0,0)"/>
  <path d="M 832 480 L 832 520" fill="none" stroke="rgb(0,0,0)"/>
  <path d="M 832 520 L 448 520" fill="none" stroke="rgb(0,0,0)"/>
  <path d="M 448 520 L 448 480" fill="none" stroke="rgb(0,0,0)"/>
  <text fill="rgb(0,0,0)" font-family="sansserif" font-size="11" font-style="normal" font-weight="normal" text-anchor="middle" x="640" y="506">dst_as</text>
  <rect fill="rgb(255,255,255)" height="40" stroke="rgb(255,255,255)" width="192" x="64" y="520"/>
  <path d="M 64 520 L 256 520" fill="none" stroke="rgb(0,0,0)"/>
  <path d="M 256 520 L 256 560" fill="none" stroke="rgb(0,0,0)"/>
  <path d="M 256 560 L 64 560" fill="none" stroke="rgb(0,0,0)"/>
  <path d="M 64 560 L 64 520" fill="none" stroke="rgb(0,0,0)"/>
  <text fill="rgb(0,0,0)" font-family="sansserif" font-size="11" font-style="normal" font-weight="normal" text-anchor="middle" x="160" y="546">src_mask</text>
  <rect fill="rgb(255,255,255)" height="40" stroke="rgb(255,255,255)" width="192" x="256" y="520"/>
  <path d="M 256 520 L 448 520" fill="none" stroke="rgb(0,0,0)"/>
  <path d="M 448 520 L 448 560" fill="none" stroke="rgb(0,0,0)"/>
  <path d="M 448 560 L 256 560" fill="none" stroke="rgb(0,0,0)"/>
  <path d="M 256 560 L 256 520" fill="none" stroke="rgb(0,0,0)"/>
  <text fill="rgb(0,0,0)" font-family="sansserif" font-size="11" font-style="normal" font-weight="normal" text-anchor="middle" x="352" y="546">dst_mask</text>
  <rect fill="rgb(255,255,255)" height="40" stroke="rgb(255,255,255)" width="384" x="448" y="520"/>
  <path d="M 448 520 L 832 520" fill="none" stroke="rgb(0,0,0)"/>
  <path d="M 832 520 L 832 560" fill="none" stroke="rgb(0,0,0)"/>
  <path d="M 832 560 L 448 560" fill="none" stroke="rgb(0,0,0)"/>
  <path d="M 448 560 L 448 520" fill="none" stroke="rgb(0,0,0)"/>
  <text fill="rgb(0,0,0)" font-family="sansserif" font-size="11" font-style="normal" font-weight="normal" text-anchor="middle" x="640" y="546">pad2</text>
</svg>
